<?xml version="1.0" standalone="no"?>
<svg xmlns:xlink="http://www.w3.org/1999/xlink" id="wave" style="transform:rotate(180deg); transition: 0.3s" viewBox="0 0 1440 450" version="1.1" xmlns="http://www.w3.org/2000/svg"><defs><linearGradient id="sw-gradient-0" x1="0" x2="0" y1="1" y2="0"><stop stop-color="rgba(243, 106, 62, 1)" offset="0%"/><stop stop-color="rgba(255, 179, 11, 1)" offset="100%"/></linearGradient></defs><path style="transform:translate(0, 0px); opacity:1" fill="url(#sw-gradient-0)" d="M0,45L21.8,90C43.6,135,87,225,131,262.5C174.5,300,218,285,262,300C305.5,315,349,360,393,345C436.4,330,480,255,524,240C567.3,225,611,270,655,240C698.2,210,742,105,785,120C829.1,135,873,270,916,307.5C960,345,1004,285,1047,262.5C1090.9,240,1135,255,1178,270C1221.8,285,1265,300,1309,292.5C1352.7,285,1396,255,1440,225C1483.6,195,1527,165,1571,172.5C1614.5,180,1658,225,1702,225C1745.5,225,1789,180,1833,165C1876.4,150,1920,165,1964,202.5C2007.3,240,2051,300,2095,315C2138.2,330,2182,300,2225,262.5C2269.1,225,2313,180,2356,187.5C2400,195,2444,255,2487,270C2530.9,285,2575,255,2618,262.5C2661.8,270,2705,315,2749,315C2792.7,315,2836,270,2880,255C2923.6,240,2967,255,3011,240C3054.5,225,3098,180,3120,157.5L3141.8,135L3141.8,450L3120,450C3098.2,450,3055,450,3011,450C2967.3,450,2924,450,2880,450C2836.4,450,2793,450,2749,450C2705.5,450,2662,450,2618,450C2574.5,450,2531,450,2487,450C2443.6,450,2400,450,2356,450C2312.7,450,2269,450,2225,450C2181.8,450,2138,450,2095,450C2050.9,450,2007,450,1964,450C1920,450,1876,450,1833,450C1789.1,450,1745,450,1702,450C1658.2,450,1615,450,1571,450C1527.3,450,1484,450,1440,450C1396.4,450,1353,450,1309,450C1265.5,450,1222,450,1178,450C1134.5,450,1091,450,1047,450C1003.6,450,960,450,916,450C872.7,450,829,450,785,450C741.8,450,698,450,655,450C610.9,450,567,450,524,450C480,450,436,450,393,450C349.1,450,305,450,262,450C218.2,450,175,450,131,450C87.3,450,44,450,22,450L0,450Z"/></svg>